<?xml version="1.0" standalone="no"?>
<!DOCTYPE svg PUBLIC "-//W3C//DTD SVG 20010904//EN"
 "http://www.w3.org/TR/2001/REC-SVG-20010904/DTD/svg10.dtd">
<svg version="1.0" xmlns="http://www.w3.org/2000/svg"
 width="512.000000pt" height="512.000000pt" viewBox="0 0 512.000000 512.000000"
 preserveAspectRatio="xMidYMid meet">
<metadata>
Created by potrace 1.14, written by Peter Selinger 2001-2017
</metadata>
<g transform="translate(0.000000,512.000000) scale(0.100000,-0.100000)"
fill="#000000" stroke="none">
<path d="M2165 4162 c-87 -9 -361 -85 -383 -106 -1 -2 30 -23 70 -47 40 -24
97 -64 127 -88 30 -24 90 -59 133 -77 92 -38 195 -95 236 -129 17 -14 33 -25
36 -25 6 0 47 -36 110 -95 155 -148 283 -369 333 -574 18 -75 27 -310 13 -347
-8 -20 -6 -24 11 -24 11 0 22 7 25 15 4 8 11 15 17 15 34 0 216 179 278 276
180 276 189 606 22 831 -88 120 -246 240 -418 318 -63 29 -86 37 -150 52 -23
5 -416 10 -460 5z"/>
<path d="M3168 4035 c-2 -3 25 -35 62 -72 102 -105 179 -245 211 -383 14 -60
17 -225 6 -305 -17 -126 -80 -286 -160 -405 -39 -59 -124 -158 -162 -190 -16
-14 -38 -33 -48 -43 -35 -35 -184 -134 -257 -171 -46 -24 -94 -59 -125 -91
-84 -88 -182 -137 -318 -160 -38 -6 -38 -7 -35 -48 l3 -42 60 1 c550 7 1027
212 1280 549 59 78 138 242 161 330 24 100 24 350 0 420 -21 59 -67 155 -81
171 -5 7 -19 25 -30 40 -45 63 -93 114 -168 177 -21 18 -44 38 -52 45 -7 6
-16 12 -19 12 -8 0 -110 64 -117 73 -3 5 -10 9 -15 9 -5 0 -36 12 -69 27 -33
15 -64 28 -70 30 -5 1 -20 8 -31 16 -12 8 -24 12 -26 10z"/>
<path d="M1578 3933 c-83 -69 -175 -177 -211 -249 -16 -31 -9 -54 17 -54 12 0
157 -92 226 -144 86 -65 154 -141 192 -219 70 -139 79 -202 79 -549 l0 -218
37 0 c68 0 178 51 245 112 14 13 41 48 61 78 41 63 46 111 21 218 -22 93 -57
160 -120 230 -48 53 -165 152 -180 152 -3 0 -37 21 -77 47 -40 26 -85 54 -99
63 -15 8 -48 33 -74 55 -26 22 -51 42 -55 45 -4 3 -21 26 -37 52 -23 36 -30
60 -32 106 -3 95 34 158 117 198 37 18 43 20 62 23 24 3 5 21 -54 50 -35 17
-68 31 -74 31 -6 0 -25 -12 -44 -27z"/>
<path d="M1287 3503 c-12 -21 -26 -107 -32 -189 -6 -90 -6 -2047 0 -2053 11
-10 475 -7 476 4 6 51 2 1697 -3 1750 -14 122 -73 245 -150 311 -68 58 -258
184 -277 184 -5 0 -12 -3 -14 -7z"/>
<path d="M2218 2472 c-67 -53 -67 -53 -13 -47 27 4 53 12 57 18 7 11 12 68 6
66 -2 0 -24 -17 -50 -37z"/>
<path d="M2218 2285 c-5 -5 -117 -15 -218 -21 -52 -3 -100 -7 -107 -9 -9 -3
-12 -139 -11 -570 0 -311 -2 -568 -4 -570 -2 -3 -144 -5 -315 -5 l-311 -1 -4
-65 c-1 -36 0 -71 4 -78 5 -9 121 -12 510 -12 l503 1 0 665 0 665 -22 1 c-12
1 -24 0 -25 -1z"/>
</g>
</svg>
