<svg xmlns="http://www.w3.org/2000/svg" xmlns:xlink="http://www.w3.org/1999/xlink" preserveAspectRatio="xMidYMid meet" version="1.0" viewBox="0.0 0.0 500.0 450.3" zoomAndPan="magnify" style="fill: rgb(0, 0, 0);" role="img" aria-label="Working Man Programmer"><defs><clipPath id="__id64_scz8be279v"><path d="M 12 0 L 476 0 L 476 450.261719 L 12 450.261719 Z M 12 0"></path></clipPath><clipPath id="__id65_scz8be279v"><path d="M 0 9 L 500.03125 9 L 500.03125 450.261719 L 0 450.261719 Z M 0 9"></path></clipPath></defs><g><g clip-path="url(#__id64_scz8be279v)" id="__id66_scz8be279v"><path d="M 84.871094 221.140625 L 38.394531 221.140625 C 36.539062 221.140625 35.039062 219.640625 35.039062 217.789062 L 35.039062 211.980469 C 35.039062 210.128906 36.539062 208.628906 38.394531 208.628906 L 84.871094 208.628906 C 86.722656 208.628906 88.222656 210.128906 88.222656 211.980469 L 88.222656 217.789062 C 88.222656 219.640625 86.722656 221.140625 84.871094 221.140625 Z M 12.324219 181.558594 L 12.324219 162.769531 L 22.511719 162.769531 L 22.511719 181.558594 C 22.511719 182.226562 21.96875 182.769531 21.300781 182.769531 L 13.535156 182.769531 C 12.867188 182.769531 12.324219 182.226562 12.324219 181.558594 Z M 96.6875 52.144531 L 96.621094 52.128906 L 96.621094 42.164062 C 96.621094 18.878906 77.742188 0 54.457031 0 C 31.167969 0 12.292969 18.878906 12.292969 42.164062 L 12.292969 61.65625 L 14.628906 61.65625 L 24.246094 95.8125 C 24.625 97.152344 26.015625 97.929688 27.351562 97.554688 L 33.289062 95.882812 C 34.628906 95.503906 35.40625 94.113281 35.03125 92.777344 L 23.292969 51.105469 C 22.914062 49.769531 21.527344 48.992188 20.1875 49.367188 L 16.554688 50.390625 L 16.554688 43.992188 C 16.554688 22.882812 33.527344 9.390625 54.457031 9.390625 C 75.390625 9.390625 92.355469 22.882812 92.355469 43.992188 L 92.355469 50.925781 L 90.75 50.472656 C 89.410156 50.097656 88.023438 50.875 87.648438 52.214844 L 75.90625 93.882812 C 75.53125 95.222656 76.308594 96.609375 77.648438 96.988281 L 83.585938 98.660156 C 84.921875 99.035156 86.3125 98.257812 86.691406 96.921875 L 98.425781 55.25 C 98.804688 53.914062 98.023438 52.523438 96.6875 52.144531 Z M 208.757812 65.605469 L 210.261719 67.109375 L 221.882812 55.488281 L 220.378906 53.984375 Z M 221.765625 50.128906 L 220.261719 48.625 L 208.640625 60.246094 L 210.144531 61.75 Z M 461.789062 450.261719 L 33.894531 450.261719 C 33.894531 450.261719 64.929688 381.027344 100.644531 342.738281 C 136.359375 304.453125 112.953125 280.160156 137.890625 222.777344 C 204.761719 68.898438 309.523438 49.285156 394.476562 71.300781 C 538.496094 108.617188 361.03125 209.75 433.792969 228.988281 C 506.554688 248.226562 461.789062 450.261719 461.789062 450.261719" style="fill: rgb(13, 13, 199);"></path></g><g id="__id67_scz8be279v"><path d="M 79.328125 354.070312 L 29.222656 354.070312 C 28.296875 354.070312 27.546875 354.820312 27.546875 355.742188 L 27.546875 359.53125 L 31.257812 359.53125 L 34.621094 396.480469 L 73.929688 396.480469 L 77.292969 359.53125 L 81.003906 359.53125 L 81.003906 355.742188 C 81.003906 354.820312 80.253906 354.070312 79.328125 354.070312 Z M 254.125 341.683594 C 254.125 335.304688 248.019531 330.128906 240.488281 330.128906 C 232.957031 330.128906 226.851562 335.304688 226.851562 341.683594 C 226.851562 348.066406 232.957031 353.238281 240.488281 353.238281 C 248.019531 353.238281 254.125 348.066406 254.125 341.683594 Z M 335.722656 290.957031 L 341.804688 303.570312 L 341.804688 290.957031 Z M 362.066406 337.691406 L 361.726562 343.542969 L 313.433594 359.488281 L 311.921875 354.566406 L 309.160156 392.707031 L 301.214844 392.957031 L 301.820312 387.339844 C 302.027344 386.40625 301.417969 385.496094 300.578125 385.496094 L 185.054688 385.496094 L 178.441406 333.628906 L 152.109375 362.699219 L 112.246094 339.644531 L 111.777344 331.878906 C 111.640625 329.578125 113.328125 327.574219 115.617188 327.320312 L 118.457031 327.007812 L 169.105469 260.363281 L 244.855469 231.507812 L 319.023438 256.335938 L 334.523438 288.472656 L 341.890625 288.472656 C 342.523438 288.472656 343.070312 288.707031 343.535156 289.175781 C 343.996094 289.640625 344.230469 290.195312 344.230469 290.839844 L 344.230469 305.519531 C 344.230469 306.164062 344 306.71875 343.546875 307.179688 L 355.617188 332.214844 L 359.035156 333.292969 C 360.929688 333.890625 362.179688 335.703125 362.066406 337.691406 Z M 401.230469 99.371094 L 410.144531 99.371094 C 410.851562 99.371094 411.425781 98.800781 411.425781 98.09375 L 411.425781 96.53125 L 399.953125 96.53125 L 399.953125 98.09375 C 399.953125 98.800781 400.523438 99.371094 401.230469 99.371094 Z M 269.113281 67.851562 C 271.351562 67.851562 273.171875 66.03125 273.171875 63.792969 C 273.171875 61.554688 271.351562 59.734375 269.113281 59.734375 C 266.878906 59.734375 265.054688 61.554688 265.054688 63.792969 C 265.054688 66.03125 266.878906 67.851562 269.113281 67.851562 Z M 264.660156 34.203125 L 165.921875 34.203125 L 165.921875 93.382812 L 264.660156 93.382812 Z M 379.105469 299.09375 C 378.761719 299.09375 378.472656 299.214844 378.234375 299.457031 C 377.996094 299.699219 377.878906 299.984375 377.878906 300.316406 L 377.878906 305.429688 L 375.425781 305.429688 L 375.425781 288.503906 L 369.261719 288.503906 C 368.921875 288.503906 368.628906 288.621094 368.390625 288.859375 C 368.152344 289.101562 368.035156 289.390625 368.035156 289.730469 C 368.035156 290.070312 368.152344 290.359375 368.390625 290.597656 C 368.628906 290.835938 368.921875 290.957031 369.261719 290.957031 L 372.96875 290.957031 L 372.96875 305.429688 L 369.203125 305.429688 C 368.863281 305.429688 368.570312 305.546875 368.332031 305.78125 C 368.09375 306.015625 367.976562 306.296875 367.976562 306.628906 C 367.976562 306.96875 368.09375 307.261719 368.332031 307.511719 C 368.570312 307.757812 368.863281 307.882812 369.203125 307.882812 L 379.105469 307.882812 C 379.445312 307.882812 379.734375 307.765625 379.972656 307.523438 C 380.210938 307.285156 380.332031 306.996094 380.332031 306.65625 L 380.332031 300.316406 C 380.332031 299.976562 380.210938 299.6875 379.972656 299.449219 C 379.734375 299.210938 379.445312 299.09375 379.105469 299.09375 Z M 359.871094 290.957031 L 352.394531 290.957031 L 352.394531 305.429688 L 359.871094 305.429688 Z M 361.601562 289.175781 C 362.0625 289.640625 362.296875 290.195312 362.296875 290.839844 L 362.296875 305.519531 C 362.296875 306.171875 362.0625 306.726562 361.601562 307.1875 C 361.136719 307.652344 360.582031 307.882812 359.929688 307.882812 L 352.304688 307.882812 C 351.644531 307.882812 351.085938 307.652344 350.625 307.1875 C 350.167969 306.726562 349.9375 306.171875 349.9375 305.519531 L 349.9375 290.839844 C 349.9375 290.195312 350.171875 289.640625 350.640625 289.175781 C 351.105469 288.707031 351.660156 288.472656 352.304688 288.472656 L 359.957031 288.472656 C 360.589844 288.472656 361.136719 288.707031 361.601562 289.175781 Z M 453.527344 241.210938 L 453.527344 245.679688 L 451.074219 245.679688 L 451.074219 238.699219 C 450.28125 237.945312 449.464844 237.226562 448.621094 236.539062 L 448.621094 245.679688 L 444.851562 245.679688 C 444.511719 245.679688 444.222656 245.796875 443.984375 246.03125 C 443.746094 246.265625 443.628906 246.546875 443.628906 246.878906 C 443.628906 247.21875 443.746094 247.511719 443.984375 247.761719 C 444.222656 248.007812 444.511719 248.132812 444.851562 248.132812 L 454.753906 248.132812 C 455.09375 248.132812 455.386719 248.015625 455.625 247.773438 C 455.863281 247.535156 455.980469 247.246094 455.980469 246.90625 L 455.980469 244.144531 C 455.191406 243.128906 454.375 242.148438 453.527344 241.210938 Z M 435.519531 231.207031 L 428.042969 231.207031 L 428.042969 245.679688 L 435.519531 245.679688 Z M 437.800781 230.28125 C 437.890625 230.535156 437.945312 230.800781 437.945312 231.089844 L 437.945312 245.769531 C 437.945312 246.421875 437.714844 246.976562 437.253906 247.4375 C 436.789062 247.902344 436.230469 248.132812 435.578125 248.132812 L 427.953125 248.132812 C 427.292969 248.132812 426.734375 247.902344 426.277344 247.4375 C 425.816406 246.976562 425.589844 246.421875 425.589844 245.769531 L 425.589844 231.089844 C 425.589844 230.445312 425.824219 229.890625 426.289062 229.425781 C 426.757812 228.957031 427.3125 228.722656 427.953125 228.722656 L 432.855469 228.722656 C 433.164062 228.8125 433.472656 228.902344 433.792969 228.988281 C 435.171875 229.351562 436.503906 229.789062 437.800781 230.28125 Z M 417.453125 231.207031 L 409.976562 231.207031 L 409.976562 245.679688 L 417.453125 245.679688 Z M 419.183594 229.425781 C 419.648438 229.890625 419.878906 230.445312 419.878906 231.089844 L 419.878906 245.769531 C 419.878906 246.421875 419.648438 246.976562 419.183594 247.4375 C 418.722656 247.902344 418.164062 248.132812 417.511719 248.132812 L 409.890625 248.132812 C 409.226562 248.132812 408.667969 247.902344 408.210938 247.4375 C 407.753906 246.976562 407.523438 246.421875 407.523438 245.769531 L 407.523438 231.089844 C 407.523438 230.445312 407.757812 229.890625 408.226562 229.425781 C 408.691406 228.957031 409.246094 228.722656 409.890625 228.722656 L 417.542969 228.722656 C 418.175781 228.722656 418.722656 228.957031 419.183594 229.425781 Z M 400.558594 239.34375 C 400.21875 239.34375 399.925781 239.464844 399.6875 239.707031 C 399.449219 239.949219 399.332031 240.238281 399.332031 240.566406 L 399.332031 245.679688 L 396.878906 245.679688 L 396.878906 228.753906 L 390.714844 228.753906 C 390.371094 228.753906 390.085938 228.871094 389.84375 229.109375 C 389.605469 229.351562 389.488281 229.640625 389.488281 229.980469 C 389.488281 230.320312 389.605469 230.609375 389.84375 230.847656 C 390.085938 231.085938 390.371094 231.207031 390.714844 231.207031 L 394.425781 231.207031 L 394.425781 245.679688 L 390.65625 245.679688 C 390.316406 245.679688 390.023438 245.796875 389.785156 246.03125 C 389.550781 246.265625 389.429688 246.546875 389.429688 246.878906 C 389.429688 247.21875 389.550781 247.511719 389.785156 247.761719 C 390.023438 248.007812 390.316406 248.132812 390.65625 248.132812 L 400.558594 248.132812 C 400.898438 248.132812 401.1875 248.015625 401.425781 247.773438 C 401.664062 247.535156 401.785156 247.246094 401.785156 246.90625 L 401.785156 240.566406 C 401.785156 240.226562 401.664062 239.9375 401.425781 239.699219 C 401.1875 239.460938 400.898438 239.34375 400.558594 239.34375 Z M 381.324219 231.207031 L 373.847656 231.207031 L 373.847656 245.679688 L 381.324219 245.679688 Z M 383.054688 229.425781 C 383.515625 229.890625 383.746094 230.445312 383.746094 231.089844 L 383.746094 245.769531 C 383.746094 246.421875 383.515625 246.976562 383.054688 247.4375 C 382.589844 247.902344 382.035156 248.132812 381.382812 248.132812 L 373.757812 248.132812 C 373.097656 248.132812 372.535156 247.902344 372.078125 247.4375 C 371.621094 246.976562 371.390625 246.421875 371.390625 245.769531 L 371.390625 231.089844 C 371.390625 230.445312 371.625 229.890625 372.09375 229.425781 C 372.558594 228.957031 373.113281 228.722656 373.757812 228.722656 L 381.410156 228.722656 C 382.042969 228.722656 382.589844 228.957031 383.054688 229.425781 Z M 352.21875 175.195312 L 359.691406 175.195312 L 359.691406 160.722656 L 352.21875 160.722656 Z M 352.128906 158.238281 L 359.78125 158.238281 C 360.414062 158.238281 360.960938 158.472656 361.425781 158.941406 C 361.886719 159.40625 362.117188 159.964844 362.117188 160.605469 L 362.117188 175.285156 C 362.117188 175.9375 361.886719 176.492188 361.425781 176.957031 C 360.960938 177.417969 360.40625 177.648438 359.753906 177.648438 L 352.128906 177.648438 C 351.46875 177.648438 350.90625 177.417969 350.449219 176.957031 C 349.992188 176.492188 349.761719 175.9375 349.761719 175.285156 L 349.761719 160.605469 C 349.761719 159.964844 349.996094 159.40625 350.464844 158.941406 C 350.929688 158.472656 351.484375 158.238281 352.128906 158.238281 Z M 332.894531 175.195312 C 332.554688 175.195312 332.261719 175.3125 332.023438 175.546875 C 331.785156 175.78125 331.667969 176.0625 331.667969 176.394531 C 331.667969 176.734375 331.785156 177.027344 332.023438 177.277344 C 332.261719 177.523438 332.554688 177.648438 332.894531 177.648438 L 342.796875 177.648438 C 343.136719 177.648438 343.425781 177.53125 343.664062 177.292969 C 343.902344 177.054688 344.023438 176.765625 344.023438 176.425781 L 344.023438 170.085938 C 344.023438 169.742188 343.902344 169.453125 343.664062 169.214844 C 343.425781 168.976562 343.136719 168.859375 342.796875 168.859375 C 342.453125 168.859375 342.164062 168.980469 341.925781 169.222656 C 341.6875 169.46875 341.570312 169.753906 341.570312 170.085938 L 341.570312 175.195312 L 339.117188 175.195312 L 339.117188 158.269531 L 332.953125 158.269531 C 332.613281 158.269531 332.320312 158.390625 332.085938 158.628906 C 331.84375 158.867188 331.726562 159.15625 331.726562 159.496094 C 331.726562 159.839844 331.84375 160.128906 332.085938 160.363281 C 332.320312 160.605469 332.613281 160.722656 332.953125 160.722656 L 336.664062 160.722656 L 336.664062 175.195312 Z M 316.085938 175.195312 L 323.5625 175.195312 L 323.5625 160.722656 L 316.085938 160.722656 Z M 315.996094 158.238281 L 323.648438 158.238281 C 324.28125 158.238281 324.828125 158.472656 325.292969 158.941406 C 325.753906 159.40625 325.984375 159.964844 325.984375 160.605469 L 325.984375 175.285156 C 325.984375 175.9375 325.753906 176.492188 325.292969 176.957031 C 324.828125 177.417969 324.273438 177.648438 323.621094 177.648438 L 315.996094 177.648438 C 315.335938 177.648438 314.773438 177.417969 314.316406 176.957031 C 313.859375 176.492188 313.632812 175.9375 313.632812 175.285156 L 313.632812 160.605469 C 313.632812 159.964844 313.863281 159.40625 314.332031 158.941406 C 314.800781 158.472656 315.355469 158.238281 315.996094 158.238281 Z M 302.984375 158.269531 L 296.820312 158.269531 C 296.480469 158.269531 296.191406 158.390625 295.953125 158.628906 C 295.714844 158.867188 295.59375 159.15625 295.59375 159.496094 C 295.59375 159.839844 295.714844 160.128906 295.953125 160.363281 C 296.191406 160.605469 296.480469 160.722656 296.820312 160.722656 L 300.53125 160.722656 L 300.53125 175.195312 L 296.761719 175.195312 C 296.421875 175.195312 296.132812 175.3125 295.894531 175.546875 C 295.65625 175.78125 295.535156 176.0625 295.535156 176.394531 C 295.535156 176.734375 295.65625 177.027344 295.894531 177.277344 C 296.132812 177.523438 296.421875 177.648438 296.761719 177.648438 L 306.664062 177.648438 C 307.003906 177.648438 307.296875 177.53125 307.53125 177.292969 C 307.773438 177.054688 307.890625 176.765625 307.890625 176.425781 L 307.890625 170.085938 C 307.890625 169.742188 307.773438 169.453125 307.53125 169.214844 C 307.296875 168.976562 307.003906 168.859375 306.664062 168.859375 C 306.324219 168.859375 306.035156 168.980469 305.796875 169.222656 C 305.558594 169.46875 305.4375 169.753906 305.4375 170.085938 L 305.4375 175.195312 L 302.984375 175.195312 Z M 279.953125 175.195312 L 287.429688 175.195312 L 287.429688 160.722656 L 279.953125 160.722656 Z M 279.863281 158.238281 L 287.519531 158.238281 C 288.152344 158.238281 288.699219 158.472656 289.160156 158.941406 C 289.625 159.40625 289.855469 159.964844 289.855469 160.605469 L 289.855469 175.285156 C 289.855469 175.9375 289.625 176.492188 289.160156 176.957031 C 288.699219 177.417969 288.140625 177.648438 287.488281 177.648438 L 279.863281 177.648438 C 279.203125 177.648438 278.644531 177.417969 278.1875 176.957031 C 277.726562 176.492188 277.5 175.9375 277.5 175.285156 L 277.5 160.605469 C 277.5 159.964844 277.734375 159.40625 278.199219 158.941406 C 278.667969 158.472656 279.222656 158.238281 279.863281 158.238281 Z M 260.632812 175.195312 C 260.289062 175.195312 260 175.3125 259.761719 175.546875 C 259.523438 175.78125 259.40625 176.0625 259.40625 176.394531 C 259.40625 176.734375 259.523438 177.027344 259.761719 177.277344 C 260 177.523438 260.289062 177.648438 260.632812 177.648438 L 270.53125 177.648438 C 270.871094 177.648438 271.164062 177.53125 271.402344 177.292969 C 271.640625 177.054688 271.761719 176.765625 271.761719 176.425781 L 271.761719 170.085938 C 271.761719 169.742188 271.640625 169.453125 271.402344 169.214844 C 271.164062 168.976562 270.871094 168.859375 270.53125 168.859375 C 270.191406 168.859375 269.902344 168.980469 269.664062 169.222656 C 269.425781 169.46875 269.304688 169.753906 269.304688 170.085938 L 269.304688 175.195312 L 266.851562 175.195312 L 266.851562 158.269531 L 260.6875 158.269531 C 260.347656 158.269531 260.058594 158.390625 259.820312 158.628906 C 259.582031 158.867188 259.464844 159.15625 259.464844 159.496094 C 259.464844 159.839844 259.582031 160.128906 259.820312 160.363281 C 260.058594 160.605469 260.347656 160.722656 260.6875 160.722656 L 264.398438 160.722656 L 264.398438 175.195312 Z M 242.566406 175.195312 C 242.222656 175.195312 241.933594 175.3125 241.695312 175.546875 C 241.460938 175.78125 241.339844 176.0625 241.339844 176.394531 C 241.339844 176.734375 241.460938 177.027344 241.695312 177.277344 C 241.933594 177.523438 242.222656 177.648438 242.566406 177.648438 L 252.46875 177.648438 C 252.808594 177.648438 253.097656 177.53125 253.335938 177.292969 C 253.574219 177.054688 253.695312 176.765625 253.695312 176.425781 L 253.695312 170.085938 C 253.695312 169.742188 253.574219 169.453125 253.335938 169.214844 C 253.097656 168.976562 252.808594 168.859375 252.46875 168.859375 C 252.125 168.859375 251.835938 168.980469 251.597656 169.222656 C 251.359375 169.46875 251.238281 169.753906 251.238281 170.085938 L 251.238281 175.195312 L 248.785156 175.195312 L 248.785156 158.269531 L 242.625 158.269531 C 242.28125 158.269531 241.992188 158.390625 241.757812 158.628906 C 241.515625 158.867188 241.398438 159.15625 241.398438 159.496094 C 241.398438 159.839844 241.515625 160.128906 241.757812 160.363281 C 241.992188 160.605469 242.28125 160.722656 242.625 160.722656 L 246.335938 160.722656 L 246.335938 175.195312 Z M 225.757812 175.195312 L 233.234375 175.195312 L 233.234375 160.722656 L 225.757812 160.722656 Z M 223.988281 176.957031 C 223.53125 176.492188 223.304688 175.9375 223.304688 175.285156 L 223.304688 160.605469 C 223.304688 159.964844 223.535156 159.40625 224.003906 158.941406 C 224.472656 158.472656 225.023438 158.238281 225.667969 158.238281 L 233.320312 158.238281 C 233.953125 158.238281 234.5 158.472656 234.964844 158.941406 C 235.425781 159.40625 235.65625 159.964844 235.65625 160.605469 L 235.65625 175.285156 C 235.65625 175.9375 235.425781 176.492188 234.964844 176.957031 C 234.5 177.417969 233.945312 177.648438 233.292969 177.648438 L 225.667969 177.648438 C 225.007812 177.648438 224.445312 177.417969 223.988281 176.957031 Z M 428.074219 126.273438 L 420.59375 126.273438 L 420.59375 140.746094 L 428.074219 140.746094 Z M 428.132812 143.199219 L 420.507812 143.199219 C 419.847656 143.199219 419.285156 142.96875 418.828125 142.503906 C 418.371094 142.042969 418.140625 141.484375 418.140625 140.832031 L 418.140625 126.152344 C 418.140625 125.511719 418.375 124.957031 418.84375 124.488281 C 419.308594 124.023438 419.863281 123.789062 420.507812 123.789062 L 428.160156 123.789062 C 428.792969 123.789062 429.339844 124.023438 429.804688 124.488281 C 430.265625 124.957031 430.496094 125.511719 430.496094 126.152344 L 430.496094 140.832031 C 430.496094 141.484375 430.265625 142.042969 429.804688 142.503906 C 429.339844 142.96875 428.785156 143.199219 428.132812 143.199219 Z M 410.308594 134.769531 C 410.066406 135.015625 409.949219 135.304688 409.949219 135.632812 L 409.949219 140.746094 L 407.496094 140.746094 L 407.496094 123.816406 L 401.332031 123.816406 C 400.992188 123.816406 400.699219 123.9375 400.464844 124.175781 C 400.222656 124.414062 400.105469 124.703125 400.105469 125.046875 C 400.105469 125.386719 400.222656 125.675781 400.464844 125.914062 C 400.699219 126.152344 400.992188 126.273438 401.332031 126.273438 L 405.042969 126.273438 L 405.042969 140.746094 L 401.273438 140.746094 C 400.933594 140.746094 400.644531 140.863281 400.402344 141.097656 C 400.167969 141.328125 400.046875 141.613281 400.046875 141.941406 C 400.046875 142.285156 400.167969 142.578125 400.402344 142.824219 C 400.644531 143.074219 400.933594 143.199219 401.273438 143.199219 L 411.175781 143.199219 C 411.515625 143.199219 411.804688 143.078125 412.046875 142.839844 C 412.28125 142.601562 412.402344 142.3125 412.402344 141.972656 L 412.402344 135.632812 C 412.402344 135.292969 412.28125 135.003906 412.046875 134.765625 C 411.804688 134.523438 411.515625 134.40625 411.175781 134.40625 C 410.835938 134.40625 410.546875 134.527344 410.308594 134.769531 Z M 391.941406 126.273438 L 384.464844 126.273438 L 384.464844 140.746094 L 391.941406 140.746094 Z M 392 143.199219 L 384.375 143.199219 C 383.714844 143.199219 383.15625 142.96875 382.695312 142.503906 C 382.238281 142.042969 382.011719 141.484375 382.011719 140.832031 L 382.011719 126.152344 C 382.011719 125.511719 382.242188 124.957031 382.710938 124.488281 C 383.179688 124.023438 383.734375 123.789062 384.375 123.789062 L 392.027344 123.789062 C 392.660156 123.789062 393.210938 124.023438 393.671875 124.488281 C 394.136719 124.957031 394.367188 125.511719 394.367188 126.152344 L 394.367188 140.832031 C 394.367188 141.484375 394.136719 142.042969 393.671875 142.503906 C 393.210938 142.96875 392.652344 143.199219 392 143.199219 Z M 375.914062 142.839844 C 376.152344 142.601562 376.269531 142.3125 376.269531 141.972656 L 376.269531 135.632812 C 376.269531 135.292969 376.152344 135.003906 375.914062 134.765625 C 375.675781 134.523438 375.386719 134.40625 375.042969 134.40625 C 374.703125 134.40625 374.414062 134.527344 374.175781 134.769531 C 373.9375 135.015625 373.816406 135.304688 373.816406 135.632812 L 373.816406 140.746094 L 371.363281 140.746094 L 371.363281 123.816406 L 365.199219 123.816406 C 364.859375 123.816406 364.570312 123.9375 364.332031 124.175781 C 364.09375 124.414062 363.972656 124.703125 363.972656 125.046875 C 363.972656 125.386719 364.09375 125.675781 364.332031 125.914062 C 364.570312 126.152344 364.859375 126.273438 365.199219 126.273438 L 368.910156 126.273438 L 368.910156 140.746094 L 365.140625 140.746094 C 364.800781 140.746094 364.511719 140.863281 364.273438 141.097656 C 364.035156 141.328125 363.914062 141.613281 363.914062 141.941406 C 363.914062 142.285156 364.035156 142.578125 364.273438 142.824219 C 364.511719 143.074219 364.800781 143.199219 365.140625 143.199219 L 375.042969 143.199219 C 375.386719 143.199219 375.675781 143.078125 375.914062 142.839844 Z M 355.808594 126.273438 L 348.332031 126.273438 L 348.332031 140.746094 L 355.808594 140.746094 Z M 355.898438 123.789062 C 356.53125 123.789062 357.078125 124.023438 357.539062 124.488281 C 358.003906 124.957031 358.234375 125.511719 358.234375 126.152344 L 358.234375 140.832031 C 358.234375 141.484375 358.003906 142.042969 357.539062 142.503906 C 357.078125 142.96875 356.519531 143.199219 355.867188 143.199219 L 348.246094 143.199219 C 347.582031 143.199219 347.023438 142.96875 346.566406 142.503906 C 346.105469 142.042969 345.878906 141.484375 345.878906 140.832031 L 345.878906 126.152344 C 345.878906 125.511719 346.113281 124.957031 346.578125 124.488281 C 347.046875 124.023438 347.601562 123.789062 348.246094 123.789062 Z M 329.011719 140.746094 C 328.671875 140.746094 328.378906 140.863281 328.140625 141.097656 C 327.902344 141.328125 327.785156 141.613281 327.785156 141.941406 C 327.785156 142.285156 327.902344 142.578125 328.140625 142.824219 C 328.378906 143.074219 328.671875 143.199219 329.011719 143.199219 L 338.910156 143.199219 C 339.253906 143.199219 339.542969 143.078125 339.78125 142.839844 C 340.019531 142.601562 340.140625 142.3125 340.140625 141.972656 L 340.140625 135.632812 C 340.140625 135.292969 340.019531 135.003906 339.78125 134.765625 C 339.542969 134.523438 339.253906 134.40625 338.910156 134.40625 C 338.570312 134.40625 338.28125 134.527344 338.042969 134.769531 C 337.804688 135.015625 337.683594 135.304688 337.683594 135.632812 L 337.683594 140.746094 L 335.230469 140.746094 L 335.230469 123.816406 L 329.066406 123.816406 C 328.726562 123.816406 328.4375 123.9375 328.199219 124.175781 C 327.960938 124.414062 327.84375 124.703125 327.84375 125.046875 C 327.84375 125.386719 327.960938 125.675781 328.199219 125.914062 C 328.4375 126.152344 328.726562 126.273438 329.066406 126.273438 L 332.777344 126.273438 L 332.777344 140.746094 Z M 319.976562 134.769531 C 319.738281 135.015625 319.621094 135.304688 319.621094 135.632812 L 319.621094 140.746094 L 317.164062 140.746094 L 317.164062 123.816406 L 311.003906 123.816406 C 310.660156 123.816406 310.371094 123.9375 310.136719 124.175781 C 309.894531 124.414062 309.777344 124.703125 309.777344 125.046875 C 309.777344 125.386719 309.894531 125.675781 310.136719 125.914062 C 310.371094 126.152344 310.660156 126.273438 311.003906 126.273438 L 314.714844 126.273438 L 314.714844 140.746094 L 310.945312 140.746094 C 310.605469 140.746094 310.3125 140.863281 310.074219 141.097656 C 309.839844 141.328125 309.71875 141.613281 309.71875 141.941406 C 309.71875 142.285156 309.839844 142.578125 310.074219 142.824219 C 310.3125 143.074219 310.605469 143.199219 310.945312 143.199219 L 320.847656 143.199219 C 321.1875 143.199219 321.476562 143.078125 321.714844 142.839844 C 321.953125 142.601562 322.074219 142.3125 322.074219 141.972656 L 322.074219 135.632812 C 322.074219 135.292969 321.953125 135.003906 321.714844 134.765625 C 321.476562 134.523438 321.1875 134.40625 320.847656 134.40625 C 320.507812 134.40625 320.214844 134.527344 319.976562 134.769531 Z M 301.613281 126.273438 L 294.136719 126.273438 L 294.136719 140.746094 L 301.613281 140.746094 Z M 301.699219 123.789062 C 302.332031 123.789062 302.878906 124.023438 303.34375 124.488281 C 303.804688 124.957031 304.035156 125.511719 304.035156 126.152344 L 304.035156 140.832031 C 304.035156 141.484375 303.804688 142.042969 303.34375 142.503906 C 302.878906 142.96875 302.324219 143.199219 301.671875 143.199219 L 294.046875 143.199219 C 293.386719 143.199219 292.824219 142.96875 292.367188 142.503906 C 291.910156 142.042969 291.679688 141.484375 291.679688 140.832031 L 291.679688 126.152344 C 291.679688 125.511719 291.914062 124.957031 292.382812 124.488281 C 292.847656 124.023438 293.402344 123.789062 294.046875 123.789062 Z M 347.535156 115.289062 L 355.011719 115.289062 L 355.011719 100.816406 L 347.535156 100.816406 Z M 345.765625 117.050781 C 345.308594 116.589844 345.082031 116.03125 345.082031 115.378906 L 345.082031 100.699219 C 345.082031 100.058594 345.316406 99.503906 345.78125 99.035156 C 346.25 98.570312 346.804688 98.335938 347.445312 98.335938 L 355.101562 98.335938 C 355.730469 98.335938 356.28125 98.570312 356.742188 99.035156 C 357.203125 99.503906 357.4375 100.058594 357.4375 100.699219 L 357.4375 115.378906 C 357.4375 116.03125 357.203125 116.589844 356.742188 117.050781 C 356.28125 117.515625 355.722656 117.746094 355.070312 117.746094 L 347.445312 117.746094 C 346.785156 117.746094 346.226562 117.515625 345.765625 117.050781 Z M 328.214844 115.289062 C 327.871094 115.289062 327.582031 115.410156 327.34375 115.644531 C 327.105469 115.875 326.984375 116.15625 326.984375 116.488281 C 326.984375 116.828125 327.105469 117.125 327.34375 117.371094 C 327.582031 117.621094 327.871094 117.746094 328.214844 117.746094 L 338.113281 117.746094 C 338.453125 117.746094 338.746094 117.625 338.984375 117.386719 C 339.222656 117.148438 339.34375 116.859375 339.34375 116.519531 L 339.34375 110.179688 C 339.34375 109.839844 339.222656 109.550781 338.984375 109.3125 C 338.746094 109.070312 338.453125 108.953125 338.113281 108.953125 C 337.773438 108.953125 337.484375 109.074219 337.246094 109.316406 C 337.007812 109.5625 336.886719 109.847656 336.886719 110.179688 L 336.886719 115.289062 L 334.433594 115.289062 L 334.433594 99.371094 L 342.539062 99.371094 C 343.242188 99.371094 343.816406 98.800781 343.816406 98.09375 L 343.816406 96.53125 L 332.34375 96.53125 L 332.34375 98.09375 C 332.34375 98.1875 332.382812 98.273438 332.402344 98.363281 L 328.269531 98.363281 C 327.929688 98.363281 327.640625 98.484375 327.402344 98.722656 C 327.164062 98.960938 327.046875 99.253906 327.046875 99.59375 C 327.046875 99.933594 327.164062 100.222656 327.402344 100.460938 C 327.640625 100.699219 327.929688 100.816406 328.269531 100.816406 L 331.980469 100.816406 L 331.980469 115.289062 Z M 311.402344 115.289062 L 318.882812 115.289062 L 318.882812 100.816406 L 311.402344 100.816406 Z M 309.636719 117.050781 C 309.179688 116.589844 308.949219 116.03125 308.949219 115.378906 L 308.949219 100.699219 C 308.949219 100.058594 309.183594 99.503906 309.652344 99.035156 C 310.117188 98.570312 310.671875 98.335938 311.316406 98.335938 L 318.96875 98.335938 C 319.601562 98.335938 320.148438 98.570312 320.609375 99.035156 C 321.074219 99.503906 321.304688 100.058594 321.304688 100.699219 L 321.304688 115.378906 C 321.304688 116.03125 321.074219 116.589844 320.609375 117.050781 C 320.148438 117.515625 319.59375 117.746094 318.9375 117.746094 L 311.316406 117.746094 C 310.652344 117.746094 310.09375 117.515625 309.636719 117.050781 Z M 293.339844 115.289062 L 300.8125 115.289062 L 300.8125 100.816406 L 293.339844 100.816406 Z M 291.570312 117.050781 C 291.113281 116.589844 290.882812 116.03125 290.882812 115.378906 L 290.882812 100.699219 C 290.882812 100.058594 291.117188 99.503906 291.585938 99.035156 C 292.050781 98.570312 292.605469 98.335938 293.25 98.335938 L 300.902344 98.335938 C 301.535156 98.335938 302.082031 98.570312 302.546875 99.035156 C 303.007812 99.503906 303.238281 100.058594 303.238281 100.699219 L 303.238281 115.378906 C 303.238281 116.03125 303.007812 116.589844 302.546875 117.050781 C 302.082031 117.515625 301.527344 117.746094 300.875 117.746094 L 293.25 117.746094 C 292.589844 117.746094 292.027344 117.515625 291.570312 117.050781 Z M 275.273438 115.289062 L 282.75 115.289062 L 282.75 100.816406 L 275.273438 100.816406 Z M 272.816406 100.699219 C 272.816406 100.058594 273.050781 99.503906 273.519531 99.035156 C 273.984375 98.570312 274.539062 98.335938 275.183594 98.335938 L 282.835938 98.335938 C 283.46875 98.335938 284.015625 98.570312 284.480469 99.035156 C 284.941406 99.503906 285.175781 100.058594 285.175781 100.699219 L 285.175781 115.378906 C 285.175781 116.03125 284.941406 116.589844 284.480469 117.050781 C 284.015625 117.515625 283.460938 117.746094 282.808594 117.746094 L 275.183594 117.746094 C 274.523438 117.746094 273.964844 117.515625 273.503906 117.050781 C 273.046875 116.589844 272.816406 116.03125 272.816406 115.378906 Z M 264.625 115.289062 L 262.171875 115.289062 L 262.171875 98.363281 L 256.007812 98.363281 C 255.667969 98.363281 255.378906 98.484375 255.140625 98.722656 C 254.902344 98.960938 254.78125 99.253906 254.78125 99.59375 C 254.78125 99.933594 254.902344 100.222656 255.140625 100.460938 C 255.378906 100.699219 255.667969 100.816406 256.007812 100.816406 L 259.71875 100.816406 L 259.71875 115.289062 L 255.949219 115.289062 C 255.609375 115.289062 255.320312 115.410156 255.082031 115.644531 C 254.84375 115.875 254.722656 116.15625 254.722656 116.488281 C 254.722656 116.828125 254.84375 117.125 255.082031 117.371094 C 255.320312 117.621094 255.609375 117.746094 255.949219 117.746094 L 265.851562 117.746094 C 266.191406 117.746094 266.480469 117.625 266.71875 117.386719 C 266.960938 117.148438 267.078125 116.859375 267.078125 116.519531 L 267.078125 110.179688 C 267.078125 109.839844 266.960938 109.550781 266.71875 109.3125 C 266.480469 109.070312 266.191406 108.953125 265.851562 108.953125 C 265.511719 108.953125 265.222656 109.074219 264.984375 109.316406 C 264.742188 109.5625 264.625 109.847656 264.625 110.179688 Z M 237.882812 115.289062 C 237.542969 115.289062 237.253906 115.410156 237.015625 115.644531 C 236.777344 115.875 236.65625 116.15625 236.65625 116.488281 C 236.65625 116.828125 236.777344 117.125 237.015625 117.371094 C 237.253906 117.621094 237.542969 117.746094 237.882812 117.746094 L 247.785156 117.746094 C 248.125 117.746094 248.414062 117.625 248.65625 117.386719 C 248.894531 117.148438 249.011719 116.859375 249.011719 116.519531 L 249.011719 110.179688 C 249.011719 109.839844 248.894531 109.550781 248.65625 109.3125 C 248.414062 109.070312 248.125 108.953125 247.785156 108.953125 C 247.445312 108.953125 247.15625 109.074219 246.917969 109.316406 C 246.679688 109.5625 246.558594 109.847656 246.558594 110.179688 L 246.558594 115.289062 L 244.105469 115.289062 L 244.105469 98.363281 L 237.941406 98.363281 C 237.601562 98.363281 237.3125 98.484375 237.074219 98.722656 C 236.835938 98.960938 236.714844 99.253906 236.714844 99.59375 C 236.714844 99.933594 236.835938 100.222656 237.074219 100.460938 C 237.3125 100.699219 237.601562 100.816406 237.941406 100.816406 L 241.652344 100.816406 L 241.652344 115.289062 Z M 218.621094 107.363281 L 218.621094 115.378906 C 218.621094 116.03125 218.847656 116.589844 219.308594 117.050781 C 219.765625 117.515625 220.324219 117.746094 220.984375 117.746094 L 228.609375 117.746094 C 229.261719 117.746094 229.820312 117.515625 230.28125 117.050781 C 230.746094 116.589844 230.976562 116.03125 230.976562 115.378906 L 230.976562 100.699219 C 230.976562 100.058594 230.746094 99.503906 230.28125 99.035156 C 230.132812 98.882812 229.96875 98.765625 229.796875 98.660156 C 228.820312 99.367188 227.851562 100.089844 226.878906 100.816406 L 228.550781 100.816406 L 228.550781 115.289062 L 221.074219 115.289062 L 221.074219 105.351562 C 220.257812 106.011719 219.4375 106.683594 218.621094 107.363281 Z M 46.6875 158.601562 L 50.980469 158.601562 L 50.980469 151.339844 L 51.652344 151.339844 L 51.652344 158.601562 L 55.507812 158.601562 C 56.699219 158.601562 57.691406 158.261719 58.460938 157.589844 C 59.253906 156.894531 59.671875 155.9375 59.671875 154.824219 C 59.671875 153.953125 59.410156 153.210938 58.914062 152.648438 C 59.386719 151.992188 59.511719 151.304688 59.511719 150.761719 C 59.511719 149.699219 59.101562 148.769531 58.328125 148.078125 C 57.5625 147.394531 56.4375 147.0625 54.886719 147.0625 L 45.230469 147.0625 L 45.230469 151.339844 L 46.6875 151.339844 Z M 40.5625 151.164062 L 39.363281 151.164062 L 39.363281 147.0625 L 44.726562 147.0625 L 44.726562 158.601562 L 40.5625 158.601562 L 40.5625 151.164062" style="fill: rgb(59, 59, 246);"></path></g><g id="__id68_scz8be279v"><path d="M 264.054688 226.691406 L 264.054688 238.976562 L 269.996094 243.59375 C 269.996094 243.59375 249.667969 265.964844 242.320312 265.964844 C 235.019531 265.964844 215.035156 245.363281 215.035156 245.363281 L 221.800781 240.480469 L 221.800781 228.078125 C 218.882812 225.066406 217.042969 221.058594 216.824219 216.046875 L 216.285156 202.878906 C 212.347656 203.238281 206.011719 191.921875 209.40625 186.585938 C 211.328125 183.566406 213.78125 185.597656 215.683594 188.21875 L 215 171.441406 C 214.738281 165.585938 219.417969 160.699219 225.277344 160.699219 L 259.371094 160.699219 C 265.230469 160.699219 269.90625 165.585938 269.648438 171.441406 L 268.78125 192.632812 C 270.074219 189.078125 273.101562 182.203125 275.890625 186.585938 C 279.476562 192.222656 272.199219 204.542969 268.371094 202.703125 L 267.824219 216.046875 C 267.636719 220.324219 266.261719 223.867188 264.054688 226.691406 Z M 149.277344 361.0625 L 115.570312 341.566406 L 100.953125 362.703125 L 100.921875 362.699219 L 95.179688 371.199219 C 89.59375 379.472656 98.234375 397.980469 108.167969 399.007812 L 197.128906 401.273438 L 197.601562 396.683594 L 171.792969 396.683594 L 170.96875 388.140625 C 170.667969 386.800781 171.546875 385.496094 172.746094 385.496094 L 198.757812 385.496094 L 200.054688 372.929688 L 144.730469 367.222656 Z M 352.625 399.808594 L 301.15625 393.515625 L 301.820312 387.339844 C 302.027344 386.40625 301.417969 385.496094 300.578125 385.496094 L 264.449219 385.496094 L 265.554688 360.539062 L 319.757812 362.945312 L 317.210938 358.242188 L 356.324219 345.328125 L 368.589844 372.210938 L 369.546875 374.207031 C 373.863281 383.210938 362.597656 400.25 352.625 399.808594" style="fill: rgb(120, 79, 94);"></path></g><g clip-path="url(#__id65_scz8be279v)" id="__id69_scz8be279v"><path d="M 70.589844 365.964844 L 70.589844 369.226562 C 70.589844 369.8125 71.066406 370.289062 71.652344 370.289062 C 72.238281 370.289062 72.714844 369.8125 72.714844 369.226562 L 72.714844 365.964844 C 72.714844 365.378906 72.238281 364.902344 71.652344 364.902344 C 71.066406 364.902344 70.589844 365.378906 70.589844 365.964844 Z M 67.609375 369.226562 L 67.609375 365.964844 C 67.609375 365.378906 67.132812 364.902344 66.542969 364.902344 C 65.957031 364.902344 65.480469 365.378906 65.480469 365.964844 L 65.480469 369.226562 C 65.480469 369.8125 65.957031 370.289062 66.542969 370.289062 C 67.132812 370.289062 67.609375 369.8125 67.609375 369.226562 Z M 62.503906 369.226562 L 62.503906 365.964844 C 62.503906 365.378906 62.027344 364.902344 61.441406 364.902344 C 60.851562 364.902344 60.375 365.378906 60.375 365.964844 L 60.375 369.226562 C 60.375 369.8125 60.851562 370.289062 61.441406 370.289062 C 62.027344 370.289062 62.503906 369.8125 62.503906 369.226562 Z M 57.394531 369.226562 L 57.394531 365.964844 C 57.394531 365.378906 56.917969 364.902344 56.332031 364.902344 C 55.742188 364.902344 55.269531 365.378906 55.269531 365.964844 L 55.269531 369.226562 C 55.269531 369.8125 55.742188 370.289062 56.332031 370.289062 C 56.917969 370.289062 57.394531 369.8125 57.394531 369.226562 Z M 52.289062 369.226562 L 52.289062 365.964844 C 52.289062 365.378906 51.816406 364.902344 51.226562 364.902344 C 50.640625 364.902344 50.164062 365.378906 50.164062 365.964844 L 50.164062 369.226562 C 50.164062 369.8125 50.640625 370.289062 51.226562 370.289062 C 51.816406 370.289062 52.289062 369.8125 52.289062 369.226562 Z M 47.183594 369.226562 L 47.183594 365.964844 C 47.183594 365.378906 46.707031 364.902344 46.117188 364.902344 C 45.53125 364.902344 45.054688 365.378906 45.054688 365.964844 L 45.054688 369.226562 C 45.054688 369.8125 45.53125 370.289062 46.117188 370.289062 C 46.707031 370.289062 47.183594 369.8125 47.183594 369.226562 Z M 42.078125 369.226562 L 42.078125 365.964844 C 42.078125 365.378906 41.601562 364.902344 41.015625 364.902344 C 40.425781 364.902344 39.949219 365.378906 39.949219 365.964844 L 39.949219 369.226562 C 39.949219 369.8125 40.425781 370.289062 41.015625 370.289062 C 41.601562 370.289062 42.078125 369.8125 42.078125 369.226562 Z M 36.96875 365.964844 C 36.96875 365.378906 36.492188 364.902344 35.90625 364.902344 C 35.320312 364.902344 34.84375 365.378906 34.84375 365.964844 L 34.84375 369.226562 C 34.84375 369.8125 35.320312 370.289062 35.90625 370.289062 C 36.492188 370.289062 36.96875 369.8125 36.96875 369.226562 Z M 37.707031 375.332031 L 68.65625 375.332031 C 69.246094 375.332031 69.722656 374.855469 69.722656 374.269531 C 69.722656 373.679688 69.246094 373.203125 68.65625 373.203125 L 37.707031 373.203125 C 37.117188 373.203125 36.644531 373.679688 36.644531 374.269531 C 36.644531 374.855469 37.117188 375.332031 37.707031 375.332031 Z M 256.65625 185.265625 C 254.722656 185.253906 252.828125 185.742188 251.308594 186.734375 C 250.816406 187.058594 250.679688 187.71875 251 188.210938 C 251.320312 188.699219 251.980469 188.839844 252.472656 188.515625 C 253.617188 187.765625 255.125 187.339844 256.609375 187.390625 C 258.09375 187.425781 259.574219 187.902344 260.675781 188.703125 C 260.863281 188.839844 261.082031 188.90625 261.296875 188.90625 C 261.628906 188.90625 261.949219 188.753906 262.160156 188.46875 C 262.503906 187.992188 262.398438 187.328125 261.925781 186.984375 C 260.460938 185.917969 258.589844 185.308594 256.65625 185.265625 Z M 230.199219 185.488281 C 228.265625 185.371094 226.347656 185.839844 224.773438 186.777344 C 224.269531 187.078125 224.105469 187.730469 224.40625 188.234375 C 224.703125 188.738281 225.355469 188.902344 225.863281 188.605469 C 227.058594 187.890625 228.589844 187.539062 230.078125 187.613281 C 231.550781 187.695312 232.996094 188.222656 234.042969 189.054688 C 234.238281 189.210938 234.472656 189.285156 234.703125 189.285156 C 235.015625 189.285156 235.324219 189.148438 235.535156 188.886719 C 235.902344 188.425781 235.824219 187.757812 235.367188 187.390625 C 233.964844 186.273438 232.128906 185.597656 230.199219 185.488281 Z M 233.355469 221.71875 C 233.261719 222.296875 233.652344 222.84375 234.230469 222.941406 C 234.496094 222.984375 238.714844 223.667969 243.476562 223.667969 C 245.957031 223.667969 248.585938 223.480469 250.878906 222.925781 C 251.449219 222.785156 251.800781 222.210938 251.660156 221.640625 C 251.523438 221.070312 250.945312 220.714844 250.378906 220.859375 C 244.105469 222.382812 234.671875 220.859375 234.578125 220.84375 C 233.988281 220.738281 233.449219 221.140625 233.355469 221.71875 Z M 120.898438 330.035156 C 121.132812 330.144531 144.496094 340.730469 151.335938 347.980469 C 151.542969 348.199219 151.824219 348.3125 152.105469 348.3125 C 152.367188 348.3125 152.632812 348.21875 152.839844 348.023438 C 153.265625 347.621094 153.285156 346.949219 152.882812 346.519531 C 145.761719 338.96875 122.75 328.539062 121.773438 328.097656 C 121.234375 327.855469 120.609375 328.097656 120.367188 328.628906 C 120.125 329.164062 120.363281 329.796875 120.898438 330.035156 Z M 314.96875 349.886719 C 315.226562 349.886719 315.488281 349.792969 315.695312 349.601562 C 327.136719 338.921875 350.628906 333.984375 350.863281 333.933594 C 351.4375 333.816406 351.808594 333.253906 351.691406 332.679688 C 351.574219 332.101562 351.007812 331.734375 350.433594 331.851562 C 349.449219 332.054688 326.125 336.953125 314.242188 348.046875 C 313.8125 348.445312 313.789062 349.121094 314.191406 349.550781 C 314.398438 349.773438 314.683594 349.886719 314.96875 349.886719 Z M 268.324219 178.519531 C 268.429688 176.292969 266.351562 174.605469 264.195312 175.160156 L 244.066406 180.363281 C 244.066406 180.363281 231.15625 177.214844 222.761719 175.199219 C 219.53125 174.425781 216.4375 176.890625 216.464844 180.210938 L 216.539062 189.1875 L 217.214844 190.878906 C 217.652344 190.269531 218.367188 189.871094 219.175781 189.871094 L 238.265625 189.871094 C 239.59375 189.871094 240.675781 190.953125 240.675781 192.28125 L 240.675781 192.40625 L 245.996094 192.40625 L 245.996094 192.042969 C 245.996094 190.847656 246.96875 189.871094 248.164062 189.871094 L 267.738281 189.871094 C 267.757812 189.871094 267.773438 189.878906 267.792969 189.878906 Z M 267.78125 195.757812 C 267.757812 195.847656 267.730469 195.941406 267.710938 196.027344 L 267.5 196.132812 L 267.691406 192.042969 L 248.164062 192 L 248.125 203.8125 L 267.738281 203.851562 L 267.78125 203.8125 Z M 238.546875 192.28125 C 238.546875 192.128906 238.421875 192 238.265625 192 L 219.175781 192 C 219.015625 192 218.890625 192.128906 218.890625 192.28125 L 218.890625 203.570312 C 218.890625 203.726562 219.015625 203.851562 219.175781 203.851562 L 238.265625 203.851562 C 238.421875 203.851562 238.546875 203.726562 238.546875 203.570312 Z M 273.71875 150.570312 C 278.296875 157.90625 278.828125 169.808594 274.738281 185.394531 C 274.308594 185.152344 273.878906 185.132812 273.453125 185.269531 L 269.90625 194.164062 L 269.90625 203.8125 C 269.90625 205.007812 268.933594 205.980469 267.738281 205.980469 L 248.164062 205.980469 C 246.96875 205.980469 245.996094 205.007812 245.996094 203.8125 L 245.996094 194.53125 L 240.675781 194.53125 L 240.675781 203.570312 C 240.675781 204.898438 239.59375 205.980469 238.265625 205.980469 L 219.175781 205.980469 C 217.847656 205.980469 216.765625 204.898438 216.765625 203.570312 L 216.765625 194.878906 C 216.566406 194.765625 216.402344 194.582031 216.3125 194.355469 L 212.730469 185.378906 C 211.992188 185.019531 211.25 184.960938 210.546875 185.390625 C 207.699219 177.0625 205.109375 165.496094 208.441406 156.722656 C 220.253906 125.609375 256.628906 145.785156 256.628906 145.785156 C 256.628906 145.785156 268.347656 141.964844 273.71875 150.570312 Z M 423.566406 51.929688 C 423.242188 52.421875 423.378906 53.082031 423.871094 53.402344 C 424.050781 53.523438 424.253906 53.578125 424.453125 53.578125 C 424.800781 53.578125 425.140625 53.410156 425.34375 53.101562 C 442.042969 27.71875 425.988281 10.441406 425.824219 10.269531 C 425.417969 9.847656 424.746094 9.832031 424.320312 10.238281 C 423.894531 10.644531 423.882812 11.316406 424.289062 11.742188 C 424.441406 11.898438 439.34375 27.949219 423.566406 51.929688 Z M 416.730469 50.175781 C 416.910156 50.296875 417.113281 50.351562 417.3125 50.351562 C 417.660156 50.351562 418 50.183594 418.203125 49.871094 C 431.300781 29.96875 418.679688 16.386719 418.550781 16.253906 C 418.144531 15.828125 417.476562 15.8125 417.050781 16.21875 C 416.625 16.621094 416.609375 17.296875 417.011719 17.722656 C 417.488281 18.222656 428.566406 30.257812 416.425781 48.703125 C 416.101562 49.195312 416.238281 49.855469 416.730469 50.175781 Z M 409.664062 44.34375 C 409.847656 44.464844 410.050781 44.519531 410.25 44.519531 C 410.59375 44.519531 410.933594 44.351562 411.136719 44.039062 C 419.675781 31.070312 411.402344 22.171875 411.316406 22.085938 C 410.910156 21.660156 410.242188 21.644531 409.820312 22.050781 C 409.394531 22.453125 409.378906 23.125 409.777344 23.550781 C 410.074219 23.863281 416.9375 31.359375 409.363281 42.871094 C 409.039062 43.363281 409.175781 44.023438 409.664062 44.34375 Z M 379.757812 54.324219 C 379.960938 54.324219 380.160156 54.269531 380.34375 54.148438 C 380.832031 53.828125 380.96875 53.167969 380.644531 52.675781 C 364.902344 28.753906 379.304688 13.140625 379.925781 12.484375 C 380.328125 12.058594 380.3125 11.386719 379.886719 10.984375 C 379.464844 10.578125 378.792969 10.59375 378.386719 11.015625 C 378.222656 11.1875 362.167969 28.464844 378.867188 53.847656 C 379.074219 54.15625 379.410156 54.324219 379.757812 54.324219 Z M 386.011719 50.617188 C 386.214844 50.929688 386.550781 51.097656 386.898438 51.097656 C 387.097656 51.097656 387.300781 51.039062 387.480469 50.921875 C 387.972656 50.597656 388.109375 49.941406 387.785156 49.449219 C 375.648438 31.003906 386.71875 18.972656 387.199219 18.46875 C 387.601562 18.042969 387.589844 17.371094 387.164062 16.964844 C 386.738281 16.558594 386.066406 16.574219 385.660156 17 C 385.53125 17.132812 372.910156 30.714844 386.011719 50.617188 Z M 393.960938 45.265625 C 394.160156 45.265625 394.363281 45.210938 394.546875 45.089844 C 395.035156 44.765625 395.171875 44.109375 394.847656 43.617188 C 387.273438 32.105469 394.132812 24.617188 394.433594 24.300781 C 394.835938 23.875 394.820312 23.203125 394.398438 22.796875 C 393.972656 22.390625 393.300781 22.40625 392.894531 22.832031 C 392.808594 22.917969 384.539062 31.816406 393.074219 44.785156 C 393.277344 45.097656 393.617188 45.265625 393.960938 45.265625 Z M 81.003906 359.53125 L 27.546875 359.53125 L 31.457031 363.472656 L 77.09375 363.472656 Z M 83.09375 298.425781 C 83.09375 295.488281 80.714844 293.109375 77.777344 293.109375 C 74.839844 293.109375 72.460938 295.488281 72.460938 298.425781 L 72.460938 316.203125 L 65.492188 316.203125 L 65.492188 288.117188 C 65.492188 284.117188 62.25 280.871094 58.246094 280.871094 L 51.269531 280.871094 C 47.265625 280.871094 44.023438 284.117188 44.023438 288.117188 L 44.023438 327.753906 L 38.40625 327.753906 L 38.40625 309.972656 C 38.40625 307.035156 36.027344 304.65625 33.089844 304.65625 C 30.15625 304.65625 27.773438 307.035156 27.773438 309.972656 L 27.773438 328.167969 C 27.773438 333.804688 32.359375 338.386719 37.996094 338.386719 L 44.023438 338.386719 L 44.023438 354.070312 L 65.492188 354.070312 L 65.492188 326.839844 L 72.871094 326.839844 C 78.507812 326.839844 83.09375 322.253906 83.09375 316.617188 Z M 429.136719 357.394531 L 429.136719 378.773438 L 432.363281 378.773438 C 432.914062 378.773438 433.40625 378.425781 433.589844 377.90625 L 436.632812 369.320312 C 437.882812 365.800781 438.074219 362.019531 437.1875 358.386719 C 437.046875 357.804688 436.527344 357.394531 435.925781 357.394531 Z M 429.136719 352.078125 L 435.925781 352.078125 C 438.984375 352.078125 441.628906 354.15625 442.355469 357.128906 C 443.484375 361.769531 443.238281 366.601562 441.644531 371.101562 L 438.601562 379.683594 C 437.664062 382.320312 435.160156 384.089844 432.363281 384.089844 L 429.136719 384.089844 L 429.136719 395.664062 C 429.136719 397.761719 427.433594 399.460938 425.339844 399.460938 L 394.136719 399.460938 C 392.039062 399.460938 390.339844 397.761719 390.339844 395.664062 L 390.339844 349.132812 L 429.136719 349.132812 Z M 254.125 341.683594 C 254.125 335.304688 248.019531 330.128906 240.488281 330.128906 C 232.957031 330.128906 226.851562 335.304688 226.851562 341.683594 C 226.851562 348.066406 232.957031 353.238281 240.488281 353.238281 C 248.019531 353.238281 254.125 348.066406 254.125 341.683594 Z M 302.367188 290.769531 C 302.816406 278.566406 307.363281 269.179688 307.570312 268.761719 C 307.828125 268.234375 308.464844 268.015625 308.996094 268.273438 C 309.519531 268.535156 309.738281 269.171875 309.480469 269.699219 C 309.429688 269.796875 304.960938 279.046875 304.496094 290.769531 L 308.496094 290.769531 C 311.285156 290.769531 313.523438 293.078125 313.429688 295.867188 L 310.492188 384.683594 C 310.40625 387.347656 308.222656 389.457031 305.558594 389.457031 L 171.394531 389.457031 C 168.730469 389.457031 166.550781 387.347656 166.460938 384.683594 L 163.523438 295.867188 C 163.433594 293.078125 165.667969 290.769531 168.460938 290.769531 L 175.851562 290.769531 C 176.128906 285.125 172.25 276.597656 172.210938 276.511719 C 171.964844 275.976562 172.195312 275.347656 172.730469 275.101562 C 173.265625 274.855469 173.894531 275.089844 174.140625 275.621094 C 174.3125 276 178.226562 284.601562 177.980469 290.769531 L 236.886719 290.769531 L 236.621094 271.605469 C 236.59375 269.722656 237.605469 267.980469 239.257812 267.070312 L 241.082031 266.066406 L 229.417969 260.4375 C 227.261719 259.34375 225.371094 258.160156 223.757812 259.78125 L 218.226562 265.335938 C 217.191406 266.375 215.417969 265.664062 215.386719 264.195312 L 215.003906 245.554688 C 214.613281 242.296875 221.800781 228.183594 221.800781 228.183594 C 221.800781 228.183594 225.289062 251.214844 241.582031 265.789062 L 245.117188 263.84375 C 261.011719 250.972656 264.054688 226.730469 264.054688 226.730469 C 264.054688 226.730469 270.355469 240.335938 269.996094 243.59375 L 271.046875 260.300781 C 271.140625 261.78125 269.46875 262.707031 268.265625 261.839844 L 266.902344 260.863281 C 264.289062 258.980469 260.417969 258.546875 257.199219 259.765625 L 247.75 263.628906 L 247.75 290.769531 Z M 493.777344 399.699219 L 310.828125 399.699219 L 311.664062 392.933594 C 311.90625 392 311.203125 391.089844 310.238281 391.089844 L 163.171875 391.089844 C 161.789062 391.089844 160.78125 392.394531 161.128906 393.734375 L 161.789062 399.699219 L 69.796875 399.699219 L 71.167969 396.480469 L 36.074219 396.480469 L 37.449219 399.699219 L 6.257812 399.699219 C 2.800781 399.699219 0 402.5 0 405.957031 L 0 414.425781 C 0 417.882812 2.800781 420.683594 6.257812 420.683594 L 41.527344 420.683594 L 41.527344 450.261719 L 457.148438 450.261719 L 457.148438 420.683594 L 493.777344 420.683594 C 497.230469 420.683594 500.03125 417.882812 500.03125 414.425781 L 500.03125 405.957031 C 500.03125 402.5 497.230469 399.699219 493.777344 399.699219 Z M 246.070312 213.546875 C 248.375 212.710938 245.070312 206.238281 243.371094 203.210938 C 243 202.550781 242.089844 202.613281 241.816406 203.3125 C 240.683594 206.246094 238.453125 212.160156 238.472656 213.324219 C 238.496094 214.890625 243.054688 214.644531 246.070312 213.546875 Z M 230.921875 193.566406 C 229.832031 193.566406 228.949219 194.917969 228.949219 196.585938 C 228.949219 198.253906 229.832031 199.605469 230.921875 199.605469 C 232.011719 199.605469 232.894531 198.253906 232.894531 196.585938 C 232.894531 194.917969 232.011719 193.566406 230.921875 193.566406 Z M 255.71875 193.566406 C 254.628906 193.566406 253.742188 194.917969 253.742188 196.585938 C 253.742188 198.253906 254.628906 199.605469 255.71875 199.605469 C 256.804688 199.605469 257.6875 198.253906 257.6875 196.585938 C 257.6875 194.917969 256.804688 193.566406 255.71875 193.566406 Z M 241.542969 248.105469 C 245.265625 249.238281 260.824219 233.605469 263.773438 227.058594 C 259.636719 232.070312 252.746094 234.65625 244.964844 234.65625 L 239.683594 234.65625 C 232.898438 234.65625 226.792969 232.691406 222.59375 228.867188 C 227.855469 235.039062 238.484375 247.167969 241.542969 248.105469 Z M 219.597656 225.308594 C 219.597656 225.308594 219.621094 225.339844 219.664062 225.390625 C 219.644531 225.363281 219.632812 225.335938 219.613281 225.308594 Z M 373.507812 82.699219 C 373.507812 84.265625 374.777344 85.535156 376.34375 85.535156 C 377.910156 85.535156 379.179688 84.265625 379.179688 82.699219 C 379.179688 81.132812 377.910156 79.863281 376.34375 79.863281 C 374.777344 79.863281 373.507812 81.132812 373.507812 82.699219 Z M 384.570312 82.699219 C 384.570312 84.265625 385.84375 85.535156 387.40625 85.535156 C 388.976562 85.535156 390.246094 84.265625 390.246094 82.699219 C 390.246094 81.132812 388.976562 79.863281 387.40625 79.863281 C 385.84375 79.863281 384.570312 81.132812 384.570312 82.699219 Z M 395.816406 82.699219 C 395.816406 84.265625 397.089844 85.535156 398.65625 85.535156 C 400.222656 85.535156 401.492188 84.265625 401.492188 82.699219 C 401.492188 81.132812 400.222656 79.863281 398.65625 79.863281 C 397.089844 79.863281 395.816406 81.132812 395.816406 82.699219 Z M 344.402344 82.699219 C 344.402344 81.132812 343.132812 79.863281 341.566406 79.863281 C 340 79.863281 338.730469 81.132812 338.730469 82.699219 C 338.730469 84.265625 340 85.535156 341.566406 85.535156 C 343.132812 85.535156 344.402344 84.265625 344.402344 82.699219 Z M 327.5625 90.523438 L 324.847656 90.523438 L 324.847656 74.105469 L 327.5625 74.105469 L 327.5625 70.144531 C 327.5625 69.4375 328.136719 68.867188 328.839844 68.867188 L 343.949219 68.867188 L 371.929688 61.886719 C 372.90625 61.640625 373.898438 62.234375 374.140625 63.210938 L 374.609375 65.082031 C 374.851562 66.058594 374.257812 67.046875 373.28125 67.292969 L 366.96875 68.867188 L 398.707031 68.867188 L 398.707031 31.171875 C 398.707031 30.164062 399.523438 29.347656 400.527344 29.347656 L 402.457031 29.347656 C 403.464844 29.347656 404.28125 30.164062 404.28125 31.171875 L 404.28125 68.867188 L 414.199219 68.867188 C 414.902344 68.867188 415.476562 69.4375 415.476562 70.144531 L 415.476562 74.105469 L 417.988281 74.105469 L 417.988281 90.523438 L 415.476562 90.523438 L 415.476562 95.253906 C 415.476562 95.960938 414.902344 96.53125 414.199219 96.53125 L 328.839844 96.53125 C 328.136719 96.53125 327.5625 95.960938 327.5625 95.253906 Z M 166.984375 92.320312 L 263.597656 92.320312 L 263.597656 35.265625 L 166.984375 35.265625 Z M 266.117188 63.792969 C 266.117188 65.445312 267.460938 66.789062 269.113281 66.789062 C 270.765625 66.789062 272.109375 65.445312 272.109375 63.792969 C 272.109375 62.140625 270.765625 60.800781 269.113281 60.800781 C 267.460938 60.800781 266.117188 62.140625 266.117188 63.792969 Z M 154.902344 92.335938 L 154.902344 35.25 C 154.902344 31.945312 157.582031 29.269531 160.886719 29.269531 L 269.75 29.269531 C 273.054688 29.269531 275.730469 31.945312 275.730469 35.25 L 275.730469 92.335938 C 275.730469 95.640625 273.054688 98.316406 269.75 98.316406 L 160.886719 98.316406 C 157.582031 98.316406 154.902344 95.640625 154.902344 92.335938 Z M 13.777344 164.734375 L 13.777344 166.539062 L 15.582031 166.539062 L 15.582031 164.734375 Z M 18.964844 164.734375 L 18.964844 166.539062 L 20.769531 166.539062 L 20.769531 164.734375 Z M 58.609375 154.824219 C 58.609375 153.808594 58.152344 153.121094 57.234375 152.757812 C 58.042969 152.253906 58.449219 151.589844 58.449219 150.761719 C 58.449219 149.996094 58.171875 149.367188 57.617188 148.867188 C 57.0625 148.371094 56.152344 148.125 54.886719 148.125 L 52.71875 148.125 L 52.71875 157.539062 L 55.507812 157.539062 C 56.441406 157.539062 57.191406 157.289062 57.757812 156.789062 C 58.328125 156.292969 58.609375 155.636719 58.609375 154.824219 Z M 51.390625 148.125 L 46.292969 148.125 L 46.292969 150.273438 L 47.753906 150.273438 L 47.753906 157.539062 L 49.917969 157.539062 L 49.917969 150.273438 L 51.390625 150.273438 Z M 43.660156 148.125 L 40.425781 148.125 L 40.425781 150.101562 L 41.625 150.101562 L 41.625 157.539062 L 43.660156 157.539062 Z M 87.035156 218.855469 L 78.445312 218.855469 C 78.546875 219.019531 78.621094 219.199219 78.621094 219.40625 L 78.621094 232.757812 C 78.621094 236.011719 77.34375 239.054688 75.027344 241.328125 C 72.761719 243.558594 69.78125 244.777344 66.613281 244.777344 C 66.539062 244.777344 66.46875 244.773438 66.394531 244.773438 L 28.488281 244.117188 C 22.082031 244.007812 16.898438 238.902344 16.6875 232.496094 L 16.410156 185.242188 L 12.570312 185.242188 C 11.902344 185.242188 11.359375 184.699219 11.359375 184.03125 L 11.359375 170.117188 L 16.902344 170.117188 L 16.902344 164.734375 L 17.933594 164.734375 L 17.933594 170.117188 L 23.476562 170.117188 L 23.476562 184.03125 C 23.476562 184.699219 22.933594 185.242188 22.269531 185.242188 L 18.535156 185.242188 L 18.8125 232.453125 C 18.984375 237.699219 23.25 241.898438 28.523438 241.988281 L 66.433594 242.648438 C 69.089844 242.683594 71.628906 241.6875 73.535156 239.8125 C 75.441406 237.9375 76.492188 235.433594 76.492188 232.757812 L 76.492188 219.40625 C 76.492188 219.199219 76.570312 219.019531 76.667969 218.855469 L 37.195312 218.855469 C 35.152344 218.855469 33.492188 217.199219 33.492188 215.152344 L 33.492188 146.929688 C 33.492188 144.886719 35.152344 143.226562 37.195312 143.226562 L 87.035156 143.226562 C 89.082031 143.226562 90.738281 144.886719 90.738281 146.929688 L 90.738281 215.152344 C 90.738281 217.199219 89.082031 218.855469 87.035156 218.855469 Z M 55.03125 153.667969 L 54.851562 153.667969 L 54.851562 155.707031 C 55.394531 155.695312 55.796875 155.613281 56.070312 155.453125 C 56.339844 155.296875 56.472656 155.039062 56.472656 154.675781 C 56.472656 154.003906 55.992188 153.667969 55.03125 153.667969 Z M 56.285156 150.96875 C 56.285156 150.585938 56.167969 150.320312 55.941406 150.171875 C 55.714844 150.019531 55.351562 149.941406 54.851562 149.929688 L 54.851562 151.960938 C 55.804688 151.9375 56.285156 151.605469 56.285156 150.96875 Z M 20.117188 96.171875 C 20.859375 96.671875 21.78125 96.828125 22.648438 96.597656 L 24.375 96.136719 C 24.328125 96.03125 24.28125 95.929688 24.246094 95.8125 L 12.511719 54.144531 C 12.488281 54.070312 12.484375 53.992188 12.472656 53.921875 L 10.683594 54.503906 C 10.101562 54.695312 9.585938 55.042969 9.21875 55.53125 C 7.6875 57.546875 4.410156 63.800781 8.027344 77.550781 C 11.03125 88.972656 17.40625 94.335938 20.117188 96.171875 Z M 35.03125 92.777344 C 35.074219 92.941406 35.101562 93.101562 35.113281 93.265625 L 35.753906 93.09375 C 37.417969 92.648438 38.394531 90.921875 37.914062 89.265625 L 27.265625 52.433594 C 26.78125 50.761719 25.007812 49.820312 23.351562 50.363281 L 23.003906 50.476562 C 23.121094 50.671875 23.226562 50.878906 23.292969 51.105469 Z M 86.5625 97.242188 L 88.289062 97.703125 C 89.15625 97.933594 90.078125 97.777344 90.820312 97.273438 C 93.53125 95.441406 99.90625 90.078125 102.910156 78.65625 C 106.527344 64.90625 103.253906 58.652344 101.722656 56.636719 C 101.351562 56.148438 100.835938 55.800781 100.253906 55.609375 L 98.464844 55.027344 C 98.453125 55.101562 98.449219 55.175781 98.425781 55.25 L 86.691406 96.921875 C 86.65625 97.035156 86.609375 97.136719 86.5625 97.242188 Z M 73.023438 90.371094 L 83.671875 53.539062 C 84.15625 51.867188 85.929688 50.929688 87.585938 51.46875 L 87.933594 51.582031 C 87.816406 51.777344 87.710938 51.984375 87.648438 52.214844 L 75.90625 93.882812 C 75.863281 94.046875 75.835938 94.210938 75.824219 94.371094 L 75.183594 94.199219 C 73.519531 93.753906 72.542969 92.027344 73.023438 90.371094" style="fill: rgb(20, 31, 53);"></path></g></g></svg>